#!OML:ASF I:\Random Stuff\random\construction\7_22_03\Session 2\subj1.ASF
:FULLY-SPECIFIED
:DEGREES
371
root -2.22894 17.8081 5.77618 9.69918 65.5765 -1.17028
lowerback 7.88264 0.452437 2.35519
upperback 0.230791 0.863759 0.826183
thorax -4.16136 0.395103 -0.565877
lowerneck -21.3113 2.45683 2.68261
upperneck 41.6048 4.54478 -1.12605
head 19.9366 2.39442 0.124702
rclavicle 1.11717e-013 -3.1408e-014
rhumerus -20.9941 9.14254 -70.2998
rradius 80.3934
rwrist -15.009
rhand -19.5742 -8.58739
rfingers 7.12502
rthumb 6.75086 -38.4598
lclavicle 1.11717e-013 -3.1408e-014
lhumerus -13.0006 -21.5605 80.164
lradius 77.1562
lwrist 16.9749
lhand -8.51858 80.3837
lfingers 7.12502
lthumb -162.59 70.376
rfemur -18.968 6.55247 18.6432
rtibia 19.697
rfoot -9.97423 -10.8309
rtoes -8.6062
lfemur -15.063 -17.2924 -12.4375
ltibia 17.2834
lfoot -11.8713 19.2938
ltoes -31.4596
372
root -2.2333 17.8093 5.77443 9.903 65.457 -0.994361
lowerback 7.96383 0.512377 2.30187
upperback 0.339388 0.937376 0.774354
thorax -4.09197 0.433862 -0.598262
lowerneck -20.9823 2.42147 2.52363
upperneck 41.453 4.48051 -0.952136
head 19.7268 2.37395 0.215014
rclavicle -5.10877e-014 -1.19271e-014
rhumerus -20.9641 9.33073 -70.2433
rradius 80.1029
rwrist -15.0516
rhand -20.3163 -7.83368
rfingers 7.12502
rthumb 6.03441 -37.7277
lclavicle -5.10877e-014 -1.19271e-014
lhumerus -12.881 -21.6709 79.9128
lradius 77.3431
lwrist 18.2884
lhand -11.2603 77.6885
lfingers 7.12502
lthumb -165.23 72.8578
rfemur -19.0692 6.68739 18.5363
rtibia 19.7195
rfoot -9.9166 -10.8337
rtoes -8.88796
lfemur -15.0722 -17.1981 -12.5134
ltibia 17.2218
lfoot -11.8443 19.275
ltoes -31.4435
373
root -2.23539 17.81 5.77298 9.98525 65.3924 -0.90713
lowerback 8.04163 0.554976 2.31764
upperback 0.488281 0.994239 0.730323
thorax -3.97826 0.464155 -0.659156
lowerneck -20.8791 2.42032 2.49283
upperneck 41.5034 4.47702 -0.882298
head 19.7254 2.38074 0.253293
rclavicle 6.05299e-014 4.77083e-015
rhumerus -20.7804 9.59672 -70.1147
rradius 79.8129
rwrist -15.0163
rhand -20.8548 -7.25845
rfingers 7.12502
rthumb 5.51455 -37.1667
lclavicle 6.05299e-014 4.77083e-015
lhumerus -12.5306 -21.8671 79.5682
lradius 77.3313
lwrist 19.6698
lhand -13.3661 76.7524
lfingers 7.12502
lthumb -167.26 73.6562
rfemur -19.0393 6.85384 18.4648
rtibia 19.6229
rfoot -9.80676 -10.8897
rtoes -8.90322
lfemur -15.1307 -16.9782 -12.5766
ltibia 17.3434
lfoot -11.9094 19.1262
ltoes -31.4072
374
root -2.23837 17.8061 5.77183 9.83501 65.362 -1.0449
lowerback 8.15766 0.575905 2.40224
upperback 0.634876 1.0319 0.723392
thorax -3.88833 0.484103 -0.718629
lowerneck -20.8203 2.42389 2.45908
upperneck 41.6241 4.4701 -0.771697
head 19.7806 2.3915 0.31391
rclavicle -2.49475e-014 9.54166e-015
rhumerus -20.5594 9.9273 -69.8742
rradius 79.6414
rwrist -14.9668
rhand -20.9937 -6.95788
rfingers 7.12502
rthumb 5.38045 -36.8696
lclavicle -2.49475e-014 9.54166e-015
lhumerus -12.1727 -21.9822 79.2125
lradius 77.2933
lwrist 20.9207
lhand -14.1242 76.6268
lfingers 7.12502
lthumb -167.991 73.7377
rfemur -18.9347 6.88843 18.5458
rtibia 19.4446
rfoot -9.59147 -10.9653
rtoes -10.607
lfemur -15.2137 -17.0232 -12.5031
ltibia 17.5657
lfoot -12.1637 19.1735
ltoes -31.23
375
root -2.24324 17.7972 5.77006 9.58523 65.3307 -1.29969
lowerback 8.32864 0.576116 2.48625
upperback 0.750559 1.04591 0.747586
thorax -3.86242 0.491782 -0.743908
lowerneck -20.7835 2.44827 2.43253
upperneck 41.7514 4.48808 -0.654324
head 19.8472 2.41304 0.382909
rclavicle -2.17669e-014 -9.54166e-015
rhumerus -20.3561 10.4189 -69.555
rradius 79.5181
rwrist -14.8178
rhand -21.0558 -6.87293
rfingers 7.12502
rthumb 5.32044 -36.7861
lclavicle -2.17669e-014 -9.54166e-015
lhumerus -11.8943 -22.033 78.8873
lradius 77.2852
lwrist 22.1383
lhand -13.355 76.6956
lfingers 7.12502
lthumb -167.249 73.7138
rfemur -18.8164 6.89179 18.709
rtibia 19.2017
rfoot -9.23343 -11.1216
rtoes -14.2099
lfemur -15.34 -17.0541 -12.3728
ltibia 17.84
lfoot -12.3954 19.2223
ltoes -31.2197
376
root -2.24852 17.7934 5.76594 9.42309 65.3243 -1.52904
lowerback 8.4967 0.553671 2.56682
upperback 0.838714 1.03012 0.774086
thorax -3.86441 0.484205 -0.76162
lowerneck -20.7935 2.49564 2.42872
upperneck 41.82 4.54766 -0.59656
head 19.8938 2.44312 0.427233
rclavicle 5.52621e-014 1.98785e-015
rhumerus -20.1402 10.9459 -69.2263
rradius 79.3162
rwrist -13.8427
rhand -20.9003 -6.79404
rfingers 7.12502
rthumb 5.47059 -36.7034
lclavicle 5.52621e-014 1.98785e-015
lhumerus -11.6483 -21.9724 78.6
lradius 77.3016
lwrist 23.2379
lhand -10.5245 77.1431
lfingers 7.12502
lthumb -164.521 73.4565
rfemur -18.7393 7.05119 18.7966
rtibia 18.8902
rfoot -8.91298 -11.294
rtoes -15.8733
lfemur -15.5755 -16.9906 -12.251
ltibia 18.1523
lfoot -12.4833 19.2084
ltoes -31.4058
377
root -2.25238 17.7944 5.76068 9.21398 65.3444 -1.79538
lowerback 8.64572 0.518358 2.67219
upperback 0.953005 0.99925 0.8059
thorax -3.82871 0.469739 -0.785497
lowerneck -20.7668 2.52835 2.48773
upperneck 41.7612 4.593 -0.656747
head 19.8538 2.45964 0.394575
rclavicle -7.46436e-014 -8.74653e-015
rhumerus -19.8803 11.4246 -68.8817
rradius 78.9333
rwrist -11.5065
rhand -20.4844 -6.38813
rfingers 7.12502
rthumb 5.87218 -36.2868
lclavicle -7.46436e-014 -8.74653e-015
lhumerus -11.3788 -21.8279 78.3625
lradius 77.2959
lwrist 24.3114
lhand -12.9109 77.2514
lfingers 7.12502
lthumb -166.821 73.1851
rfemur -18.6317 7.1807 18.8776
rtibia 18.5576
rfoot -8.73697 -11.3165
rtoes -15.7072
lfemur -15.7818 -16.9677 -12.1213
ltibia 18.435
lfoot -12.5787 19.1996
ltoes -31.6132
